<svg width="46" height="49" viewBox="0 0 46 49" fill="none" xmlns="http://www.w3.org/2000/svg">
<path d="M10.2222 16.3333V11.6667C10.2222 8.57247 11.5684 5.60501 13.9647 3.41709C16.361 1.22916 19.6111 0 23 0C26.3889 0 29.639 1.22916 32.0353 3.41709C34.4316 5.60501 35.7778 8.57247 35.7778 11.6667V16.3333H43.4444C44.1222 16.3333 44.7722 16.5792 45.2515 17.0168C45.7308 17.4543 46 18.0478 46 18.6667V46.6667C46 47.2855 45.7308 47.879 45.2515 48.3166C44.7722 48.7542 44.1222 49 43.4444 49H2.55556C1.87778 49 1.22776 48.7542 0.748505 48.3166C0.269245 47.879 0 47.2855 0 46.6667V18.6667C0 18.0478 0.269245 17.4543 0.748505 17.0168C1.22776 16.5792 1.87778 16.3333 2.55556 16.3333H10.2222ZM10.2222 21H5.11111V44.3333H40.8889V21H35.7778V25.6667H30.6667V21H15.3333V25.6667H10.2222V21ZM15.3333 16.3333H30.6667V11.6667C30.6667 9.81015 29.8589 8.02967 28.4212 6.71692C26.9834 5.40416 25.0333 4.66667 23 4.66667C20.9667 4.66667 19.0166 5.40416 17.5788 6.71692C16.1411 8.02967 15.3333 9.81015 15.3333 11.6667V16.3333Z" fill="black"/>
</svg>
