<svg width="294" height="65" viewBox="0 0 294 65" fill="none" xmlns="http://www.w3.org/2000/svg">
<path d="M69 32.6986C69 14.6397 54.0016 0 35.5 0C16.9984 0 2 14.6397 2 32.6986C2 49.0192 14.2504 62.547 30.2656 65V42.1506H21.7598V32.6986H30.2656V25.4947C30.2656 17.2996 35.2671 12.7729 42.9191 12.7729C46.5831 12.7729 50.418 13.4115 50.418 13.4115V21.4585H46.1938C42.0325 21.4585 40.7344 23.9792 40.7344 26.5676V32.6986H50.0254L48.5401 42.1506H40.7344V65C56.7496 62.547 69 49.0192 69 32.6986Z" fill="white" fill-opacity="0.75"/>
<path d="M183.98 2H210.02C219.94 2 228 10.06 228 19.98V46.02C228 50.7886 226.106 55.3619 222.734 58.7338C219.362 62.1057 214.789 64 210.02 64H183.98C174.06 64 166 55.94 166 46.02V19.98C166 15.2114 167.894 10.6381 171.266 7.26622C174.638 3.89432 179.211 2 183.98 2ZM183.36 8.2C180.4 8.2 177.562 9.37578 175.469 11.4687C173.376 13.5616 172.2 16.4002 172.2 19.36V46.64C172.2 52.809 177.191 57.8 183.36 57.8H210.64C213.6 57.8 216.438 56.6242 218.531 54.5313C220.624 52.4384 221.8 49.5998 221.8 46.64V19.36C221.8 13.191 216.809 8.2 210.64 8.2H183.36ZM213.275 12.85C214.303 12.85 215.288 13.2583 216.015 13.985C216.742 14.7117 217.15 15.6973 217.15 16.725C217.15 17.7527 216.742 18.7383 216.015 19.465C215.288 20.1917 214.303 20.6 213.275 20.6C212.247 20.6 211.262 20.1917 210.535 19.465C209.808 18.7383 209.4 17.7527 209.4 16.725C209.4 15.6973 209.808 14.7117 210.535 13.985C211.262 13.2583 212.247 12.85 213.275 12.85ZM197 17.5C201.111 17.5 205.053 19.133 207.96 22.0398C210.867 24.9467 212.5 28.8891 212.5 33C212.5 37.1109 210.867 41.0533 207.96 43.9602C205.053 46.867 201.111 48.5 197 48.5C192.889 48.5 188.947 46.867 186.04 43.9602C183.133 41.0533 181.5 37.1109 181.5 33C181.5 28.8891 183.133 24.9467 186.04 22.0398C188.947 19.133 192.889 17.5 197 17.5ZM197 23.7C194.533 23.7 192.168 24.6798 190.424 26.4239C188.68 28.168 187.7 30.5335 187.7 33C187.7 35.4665 188.68 37.832 190.424 39.5761C192.168 41.3202 194.533 42.3 197 42.3C199.467 42.3 201.832 41.3202 203.576 39.5761C205.32 37.832 206.3 35.4665 206.3 33C206.3 30.5335 205.32 28.168 203.576 26.4239C201.832 24.6798 199.467 23.7 197 23.7Z" fill="white" fill-opacity="0.75"/>
<path d="M154 10.0588C151.313 11.2941 148.417 12.1059 145.416 12.4941C148.487 10.6235 150.859 7.65882 151.976 4.09412C149.08 5.85882 145.87 7.09412 142.485 7.8C139.728 4.76471 135.855 3 131.458 3C123.258 3 116.558 9.77647 116.558 18.1412C116.558 19.3412 116.697 20.5059 116.942 21.6C104.519 20.9647 93.4575 14.9294 86.0946 5.78824C84.8035 8.01176 84.0707 10.6235 84.0707 13.3765C84.0707 18.6353 86.6879 23.2941 90.7357 25.9412C88.2581 25.9412 85.9551 25.2353 83.9312 24.1765V24.2824C83.9312 31.6235 89.0956 37.7647 95.935 39.1412C93.7392 39.749 91.4339 39.8335 89.2003 39.3882C90.1481 42.397 92.0042 45.0297 94.5079 46.9162C97.0115 48.8028 100.037 49.8483 103.158 49.9059C97.8669 54.1427 91.3079 56.4329 84.5593 56.4C83.3728 56.4 82.1864 56.3294 81 56.1882C87.63 60.4941 95.5163 63 103.961 63C131.458 63 146.567 39.9176 146.567 19.9059C146.567 19.2353 146.567 18.6 146.533 17.9294C149.464 15.8118 151.976 13.1294 154 10.0588Z" fill="white" fill-opacity="0.75"/>
<path d="M282.842 11.7133C280.488 9.02537 279.19 5.57338 279.191 2H268.55V44.7111C268.468 47.0224 267.492 49.2117 265.828 50.8179C264.165 52.4241 261.942 53.3219 259.63 53.3222C254.74 53.3222 250.676 49.3267 250.676 44.3667C250.676 38.4422 256.393 33.9989 262.282 35.8244V24.94C250.401 23.3556 240 32.5867 240 44.3667C240 55.8367 249.505 64 259.596 64C270.409 64 279.191 55.2167 279.191 44.3667V22.7011C283.506 25.8006 288.687 27.4636 294 27.4544V16.8111C294 16.8111 287.526 17.1211 282.842 11.7133Z" fill="white" fill-opacity="0.75"/>
</svg>
