<svg width="108" height="20" viewBox="0 0 108 20" fill="none" xmlns="http://www.w3.org/2000/svg">
<path d="M10 16.0737L16.18 20L14.54 12.6L20 7.62105L12.81 6.97895L10 0L7.19 6.97895L0 7.62105L5.46 12.6L3.82 20L10 16.0737Z" fill="#FFB800"/>
<path d="M32 16.0737L38.18 20L36.54 12.6L42 7.62105L34.81 6.97895L32 0L29.19 6.97895L22 7.62105L27.46 12.6L25.82 20L32 16.0737Z" fill="#FFB800"/>
<path d="M54 16.0737L60.18 20L58.54 12.6L64 7.62105L56.81 6.97895L54 0L51.19 6.97895L44 7.62105L49.46 12.6L47.82 20L54 16.0737Z" fill="#FFB800"/>
<path d="M76 16.0737L82.18 20L80.54 12.6L86 7.62105L78.81 6.97895L76 0L73.19 6.97895L66 7.62105L71.46 12.6L69.82 20L76 16.0737Z" fill="#FFB800"/>
<path d="M98 16.0737L104.18 20L102.54 12.6L108 7.62105L100.81 6.97895L98 0L95.19 6.97895L88 7.62105L93.46 12.6L91.82 20L98 16.0737Z" fill="#FFB800"/>
</svg>
